# xmcd CD database file
#
# Track frame offsets:
#	150
#	13897
#	25580
#	36502
#	48187
#	60817
#	72925
#	83480
#	92605
#	104037
#	114942
#	125797
#
# Disc length: 1806 seconds
#
# Revision: 0
# Processed by: cddbd v1.5.1PL2 Copyright (c) Steve Scherf et al.
# Submitted via: CDex 1.60beta1
#
DISCID=94070c0c
DTITLE=Joni James - Among My Souvenirs
DYEAR=1900
DGENRE=Jazz
TTITLE0=Always
TTITLE1=When You Were Sweet Sixteen
TTITLE2=Let Me Call You Sweetheart
TTITLE3=Alice Blue Gown
TTITLE4=Among My Souvenirs
TTITLE5=When I Grow Too Old To Dream
TTITLE6=The Anniversary Song
TTITLE7=Together
TTITLE8=Something To Remember You By
TTITLE9=Greensleeves
TTITLE10='Till We Meet Again
TTITLE11=Lullaby
EXTD=
EXTT0=
EXTT1=
EXTT2=
EXTT3=
EXTT4=
EXTT5=
EXTT6=
EXTT7=
EXTT8=
EXTT9=
EXTT10=
EXTT11=
PLAYORDER=
